<svg width="190" height="28" viewBox="0 0 190 28" fill="none" xmlns="http://www.w3.org/2000/svg">
<path d="M1.1167 3.39453H3.07959L6.43408 11.6123H6.56592L9.92041 3.39453H11.8833V14H10.3452V6.33887H10.2427L7.13721 13.9854H5.86279L2.74268 6.32422H2.65479V14H1.1167V3.39453Z" fill="black"/>
<path d="M49.4751 24H47.7612L51.5698 13.3945H53.4302L57.2534 24H55.5396L54.5728 21.2021H50.4419L49.4751 24ZM50.9033 19.8545H54.104L52.5366 15.3281H52.4634L50.9033 19.8545Z" fill="black"/>
<path d="M91.8911 4.78613V3.39453H100.109V4.78613H96.813V14H95.2017V4.78613H91.8911Z" fill="black"/>
<path d="M143.488 16.8516C143.232 15.4819 142.097 14.7202 140.749 14.7275C138.918 14.7202 137.563 16.1265 137.556 18.6973C137.563 21.2827 138.925 22.6743 140.749 22.667C142.082 22.6743 143.21 21.9272 143.488 20.5723L145.114 20.5869C144.777 22.6816 143.071 24.1465 140.734 24.1465C137.973 24.1465 135.959 22.0884 135.959 18.6973C135.959 15.3062 137.988 13.248 140.734 13.248C142.976 13.248 144.755 14.5737 145.114 16.8516H143.488Z" fill="black"/>
<path d="M180.252 14V3.39453H181.863V7.99414H187.137V3.39453H188.748V14H187.137V9.37109H181.863V14H180.252Z" fill="black"/>
</svg>
