<svg width="108" height="128" viewBox="0 0 108 128" fill="none" xmlns="http://www.w3.org/2000/svg">
<path d="M27.9764 113.506L32.6937 62.5136L69.4597 84.596L27.9764 113.506Z" fill="#F4F4F4"/>
<path fill-rule="evenodd" clip-rule="evenodd" d="M30.0557 87.7665L53.9942 95.11L65.9954 86.7463L31.1392 76.0538L30.0557 87.7665Z" fill="#8DEAE5"/>
<path fill-rule="evenodd" clip-rule="evenodd" d="M28.4544 99.2078L39.0094 105.93L45.004 101.293L29.6354 91.5043L28.4544 99.2078Z" fill="#8DEAE5"/>
<path d="M85.0967 68.0078L96.9795 66.8253L100.212 70.0735L88.5092 71.2381L85.0967 68.0078Z" fill="#FEB7FF"/>
<path d="M57.7598 40.6914L57.8738 31.5623L60.6891 29.3949L60.5768 38.3858L57.7598 40.6914Z" fill="#FFA5A5"/>
<path d="M28.5947 37.8359L35.823 34.5759L39.0316 37.1061L31.9128 40.3168L28.5947 37.8359Z" fill="#9AF3FF"/>
<path d="M51.582 14.5352L50.6275 6.53704L53.9398 4.17265L54.88 12.0496L51.582 14.5352Z" fill="#8DEAE5"/>
<path d="M53.8047 56.6504L61.72 56.5133L63.6927 59.1561L55.8973 59.2911L53.8047 56.6504Z" fill="#F3FF6B"/>
<path d="M89.7119 37.1113L97.6273 36.9742L99.6 39.6171L91.8045 39.7521L89.7119 37.1113Z" fill="#9AF3FF"/>
<ellipse cx="91.5007" cy="13.3745" rx="3.05455" ry="3.1083" transform="rotate(-5.68315 91.5007 13.3745)" fill="#FEB7FF"/>
<ellipse cx="76.5173" cy="47.8882" rx="3.05455" ry="3.1083" transform="rotate(-5.68315 76.5173 47.8882)" fill="#8DEAE5"/>
<ellipse cx="30.4567" cy="25.6968" rx="3.05455" ry="3.1083" transform="rotate(-5.68315 30.4567 25.6968)" fill="#F3FF6B"/>
</svg>
