<svg width="98" height="33" viewBox="0 0 98 33" fill="none" xmlns="http://www.w3.org/2000/svg">
<circle cx="16.5" cy="16.5" r="16.5" fill="black"/>
<path d="M18.5195 8.85938V23H15.5703V11.6523H15.4922L12.25 13.6836V11.0859L15.7461 8.85938H18.5195Z" fill="white"/>
<circle cx="81.5" cy="16.5" r="16.5" fill="#E4E4E4"/>
<path d="M76.5098 23L76.4902 20.8711L81.5684 16.2031C82.8965 14.9336 83.5996 14.1523 83.5996 13.0391C83.5996 11.7891 82.6426 11.0078 81.3535 11.0078C80.0254 11.0078 79.166 11.8477 79.166 13.1953H76.373C76.3535 10.4219 78.4043 8.66406 81.3926 8.66406C84.4199 8.66406 86.4316 10.3828 86.4316 12.8438C86.4316 14.4453 85.6504 15.7734 82.7402 18.4102L80.5918 20.5V20.5781H86.627V23H76.5098Z" fill="white"/>
<circle cx="40" cy="16" r="2" fill="#D9D9D9"/>
<circle cx="49" cy="16" r="2" fill="#D9D9D9"/>
<circle cx="58" cy="16" r="2" fill="#D9D9D9"/>
</svg>
